<svg version="1.1" id="Livello_1" xmlns="http://www.w3.org/2000/svg" x="0" y="0" viewBox="0 0 595.3 257.2" style="enable-background:new 0 0 595.3 257.2" xml:space="preserve"><style>.st0{fill:#1a1a1a}.st1{fill:#ce2b37}.st2{fill:#009246}.st3{fill:#1d1d1b}</style><switch><g><path class="st0" d="M54.1 54.9H40.9V35.4h13.2v19.5zm0 80.5-13.2 13V71.9h13.2v63.5zm63.8 15.2v13.2H51.7l13.4-13.2h52.8zM181 152.1c-19.1 0-35.2-13-35.2-38.7V99.7h-13.2v13.2c0 36.7 22 52.5 48.4 52.5 24.4 0 43.8-14.1 46.6-45.1l-12.8-5.7c-.6 24.5-15.1 37.5-33.8 37.5z"/><path class="st1" d="M145.8 67.7h-13.2v19.2h13.2V67.7z"/><path class="st2" d="M145.8 35.4h-13.2v19.4h13.2V35.4z"/><path class="st0" d="M214.7 35.4v59.1l13.2 5.7V35.5h-13.2zM276.2 114.3l8.1 11.4-27.1 38.2h-16.3l35.3-49.6zm-1.3-34.6-31.5-44.2h16.1L283 68.1l-8.1 11.6zm76.7 84.1h-16.3l-47.1-66 44.6-62.4H349l-44.8 62.4 47.4 66zM399.8 115.1l-44.6-79.6h15.2l36 64.4 36.1-64.4h15.2L413 115.1h-13.2zm0 23.1h13.4v25.7h-13.4v-25.7zM554.4 35.4v13.2h-93V35.4h93zm-53.2 34.5h13.4v93.9h-13.4V69.9z"/><g><path class="st0" d="M54.9 200.6c-1.4 1.3-3.5 2-6.4 2h-5.1v10.8h-2.5v-25.2h7.6c2.8 0 4.9.7 6.4 2s2.1 3.1 2.1 5.3c0 2-.7 3.8-2.1 5.1zm-.5-5.3c0-1.7-.5-3-1.4-3.8-.9-.9-2.4-1.3-4.5-1.3h-5.1v10.2h5.1c3.9 0 5.9-1.7 5.9-5.1zM66.3 194.3c1.1-.7 2.5-1 4.2-1v2.6h-.7c-1.8 0-3.3.5-4.4 1.5-1.1 1-1.7 2.6-1.7 4.9v11h-2.5v-19.7h2.5v3.5c.6-1.2 1.4-2.2 2.6-2.8zM92 204.4H75.7c.1 1.5.4 2.8 1.1 3.8.6 1.1 1.5 1.9 2.6 2.4s2.2.8 3.5.8c1.6 0 3-.4 4.1-1.2 1.1-.8 1.9-1.9 2.2-3.2h2.7c-.5 1.9-1.5 3.5-3.1 4.7-1.6 1.2-3.6 1.8-5.9 1.8-1.9 0-3.5-.4-5-1.2-1.5-.8-2.6-2-3.4-3.5-.8-1.5-1.2-3.3-1.2-5.4 0-2 .4-3.8 1.2-5.4.8-1.5 2-2.7 3.4-3.5 1.5-.8 3.1-1.2 5-1.2s3.5.4 4.9 1.2c1.4.8 2.5 1.9 3.2 3.3s1.1 2.9 1.1 4.6c0 .9 0 1.6-.1 2zm-3.3-5.8c-.6-1-1.4-1.8-2.5-2.3-1.1-.5-2.2-.8-3.5-.8-1.9 0-3.5.6-4.8 1.8-1.3 1.2-2.1 2.9-2.2 5.1h13.9c0-1.5-.3-2.7-.9-3.8zM109 198.9v2.1H95v-2.1h14zM118 211.3h9.1v2.1h-11.6v-25.2h2.5v23.1zM134.3 212.4c-1.5-.8-2.6-2-3.5-3.5-.9-1.5-1.3-3.3-1.3-5.4 0-2 .4-3.8 1.3-5.4.9-1.5 2-2.7 3.5-3.5 1.5-.8 3.2-1.2 5-1.2 1.9 0 3.5.4 5 1.2 1.5.8 2.7 2 3.5 3.5.9 1.5 1.3 3.3 1.3 5.4 0 2-.4 3.8-1.3 5.3s-2.1 2.7-3.6 3.6c-1.5.8-3.2 1.2-5.1 1.2-1.7 0-3.4-.4-4.8-1.2zm8.6-1.9c1.1-.6 2-1.5 2.7-2.7.7-1.2 1-2.7 1-4.4 0-1.7-.3-3.2-1-4.4-.7-1.2-1.6-2.1-2.7-2.7-1.1-.6-2.3-.9-3.6-.9-1.3 0-2.5.3-3.6.9-1.1.6-2 1.5-2.7 2.7-.7 1.2-1 2.7-1 4.4 0 1.7.3 3.2 1 4.4.7 1.2 1.5 2.1 2.6 2.7 1.1.6 2.3.9 3.6.9 1.4 0 2.6-.3 3.7-.9zM160.8 210.9l6.6-17.2h2.7l-7.9 19.7h-2.8l-7.9-19.7h2.7l6.6 17.2zM191.3 204.4H175c.1 1.5.4 2.8 1.1 3.8.6 1.1 1.5 1.9 2.6 2.4s2.2.8 3.5.8c1.6 0 3-.4 4.1-1.2 1.1-.8 1.9-1.9 2.2-3.2h2.7c-.5 1.9-1.5 3.5-3.1 4.7-1.6 1.2-3.6 1.8-5.9 1.8-1.9 0-3.5-.4-5-1.2-1.5-.8-2.6-2-3.4-3.5-.8-1.5-1.2-3.3-1.2-5.4 0-2 .4-3.8 1.2-5.4.8-1.5 2-2.7 3.4-3.5 1.5-.8 3.1-1.2 5-1.2s3.5.4 4.9 1.2c1.4.8 2.5 1.9 3.2 3.3s1.1 2.9 1.1 4.6c0 .9-.1 1.6-.1 2zm-3.4-5.8c-.6-1-1.4-1.8-2.5-2.3-1.1-.5-2.2-.8-3.5-.8-1.9 0-3.5.6-4.8 1.8-1.3 1.2-2.1 2.9-2.2 5.1h13.9c0-1.5-.3-2.7-.9-3.8zM196.1 198.1c.8-1.5 1.9-2.7 3.4-3.5 1.4-.8 3-1.2 4.9-1.2 1.7 0 3.3.4 4.7 1.3 1.4.8 2.4 1.9 3.1 3.3v-11.3h2.5v26.7H212V209c-.6 1.4-1.6 2.5-3 3.4-1.4.9-3 1.3-4.8 1.3-1.8 0-3.4-.4-4.9-1.3-1.4-.8-2.6-2-3.4-3.6-.8-1.5-1.2-3.3-1.2-5.3s.5-3.9 1.4-5.4zm15 1.2c-.6-1.2-1.5-2.1-2.7-2.8-1.1-.7-2.4-1-3.7-1-1.4 0-2.6.3-3.8.9-1.1.6-2 1.5-2.6 2.7s-1 2.6-1 4.2.3 3 1 4.2c.6 1.2 1.5 2.1 2.6 2.8s2.4 1 3.8 1c1.3 0 2.6-.3 3.7-1s2-1.6 2.7-2.8c.6-1.2 1-2.6 1-4.2s-.4-2.8-1-4zM243.6 213.3l-6.2-10.5h-4.7v10.5h-2.5v-25.2h7.6c2.8 0 4.9.7 6.4 2s2.2 3.1 2.2 5.3c0 1.8-.5 3.4-1.6 4.7-1 1.3-2.6 2.1-4.6 2.5l6.5 10.7h-3.1zm-10.9-12.6h5.1c2 0 3.5-.5 4.5-1.4 1-1 1.5-2.2 1.5-3.9 0-1.7-.5-2.9-1.4-3.8-1-.9-2.5-1.4-4.5-1.4h-5.1v10.5zM269.1 204.4h-16.3c.1 1.5.4 2.8 1.1 3.8.6 1.1 1.5 1.9 2.6 2.4s2.2.8 3.5.8c1.6 0 3-.4 4.1-1.2 1.1-.8 1.9-1.9 2.2-3.2h2.7c-.5 1.9-1.5 3.5-3.1 4.7-1.6 1.2-3.6 1.8-5.9 1.8-1.9 0-3.5-.4-5-1.2-1.5-.8-2.6-2-3.4-3.5-.8-1.5-1.2-3.3-1.2-5.4 0-2 .4-3.8 1.2-5.4.8-1.5 2-2.7 3.4-3.5 1.5-.8 3.1-1.2 5-1.2s3.5.4 4.9 1.2c1.4.8 2.5 1.9 3.2 3.3.8 1.4 1.1 2.9 1.1 4.6 0 .9 0 1.6-.1 2zm-3.3-5.8c-.6-1-1.4-1.8-2.5-2.3-1.1-.5-2.2-.8-3.5-.8-1.9 0-3.5.6-4.8 1.8-1.3 1.2-2.1 2.9-2.2 5.1h13.9c0-1.5-.3-2.7-.9-3.8zM275.1 212c-1.4-1-2.2-2.5-2.4-4.3h2.6c.1 1.1.6 2 1.6 2.7s2.2 1 3.7 1c1.4 0 2.4-.3 3.2-1 .8-.7 1.2-1.5 1.2-2.4 0-.7-.2-1.2-.7-1.7-.4-.4-1-.8-1.6-1-.7-.3-1.6-.5-2.7-.8-1.5-.4-2.7-.8-3.6-1.2-.9-.4-1.7-1-2.3-1.7-.6-.8-1-1.8-1-3 0-1 .3-1.9.9-2.7.6-.8 1.4-1.5 2.5-1.9 1.1-.5 2.3-.7 3.6-.7 2.1 0 3.8.5 5.1 1.6 1.3 1.1 2 2.5 2.1 4.4h-2.5c-.1-1.2-.5-2.1-1.4-2.8-.8-.7-2-1.1-3.4-1.1-1.3 0-2.3.3-3.1.9-.8.6-1.2 1.3-1.2 2.2 0 .8.2 1.4.7 1.9.5.5 1.1.9 1.7 1.2.7.3 1.6.6 2.8.9 1.4.4 2.5.8 3.4 1.1.8.4 1.6.9 2.2 1.6.6.7.9 1.6.9 2.8 0 1.1-.3 2-.9 2.8-.6.8-1.4 1.5-2.4 2s-2.2.7-3.6.7c-2.1.1-4-.4-5.4-1.5zM292.3 198.1c.8-1.5 1.9-2.7 3.4-3.5 1.4-.8 3-1.2 4.9-1.2 1.9 0 3.5.4 4.9 1.3 1.4.9 2.3 2 2.9 3.3v-4.3h2.5v19.7h-2.5V209c-.6 1.3-1.6 2.5-3 3.3-1.4.9-3 1.3-4.9 1.3-1.8 0-3.4-.4-4.8-1.3-1.4-.8-2.6-2-3.4-3.6-.8-1.5-1.2-3.3-1.2-5.3s.4-3.8 1.2-5.3zm15 1.2c-.6-1.2-1.5-2.1-2.7-2.8-1.1-.7-2.4-1-3.7-1-1.4 0-2.6.3-3.8.9-1.1.6-2 1.5-2.6 2.7-.6 1.2-1 2.6-1 4.2s.3 3 1 4.2c.6 1.2 1.5 2.1 2.6 2.8s2.4 1 3.8 1c1.3 0 2.6-.3 3.7-1s2-1.6 2.7-2.8c.6-1.2 1-2.6 1-4.2s-.3-2.8-1-4zM319.1 186.6v26.7h-2.5v-26.7h2.5zM342.6 204.4h-16.3c.1 1.5.4 2.8 1.1 3.8.6 1.1 1.5 1.9 2.6 2.4s2.2.8 3.5.8c1.6 0 3-.4 4.1-1.2 1.1-.8 1.9-1.9 2.2-3.2h2.7c-.5 1.9-1.5 3.5-3.1 4.7-1.6 1.2-3.6 1.8-5.9 1.8-1.9 0-3.5-.4-5-1.2-1.5-.8-2.6-2-3.4-3.5-.8-1.5-1.2-3.3-1.2-5.4 0-2 .4-3.8 1.2-5.4.8-1.5 2-2.7 3.4-3.5 1.5-.8 3.1-1.2 5-1.2s3.5.4 4.9 1.2c1.4.8 2.5 1.9 3.2 3.3.8 1.4 1.1 2.9 1.1 4.6 0 .9 0 1.6-.1 2zm-3.4-5.8c-.6-1-1.4-1.8-2.5-2.3-1.1-.5-2.2-.8-3.5-.8-1.9 0-3.5.6-4.8 1.8-1.3 1.2-2.1 2.9-2.2 5.1h13.9c0-1.5-.3-2.7-.9-3.8zM360.5 212.7c-1.3-.6-2.3-1.4-3-2.4-.7-1-1.1-2.2-1.2-3.5h2.7c.1 1.2.7 2.3 1.6 3.2 1 .9 2.4 1.4 4.2 1.4 1.7 0 3.1-.4 4.1-1.3 1-.9 1.5-2 1.5-3.3 0-1.1-.3-2-.8-2.6-.6-.7-1.2-1.2-2.1-1.5-.8-.3-1.9-.7-3.4-1.1-1.7-.5-3-.9-4-1.3s-1.8-1.1-2.5-2c-.7-.9-1-2.2-1-3.7 0-1.3.3-2.5 1-3.5s1.6-1.8 2.9-2.4c1.2-.6 2.6-.9 4.2-.9 2.3 0 4.2.6 5.6 1.7 1.4 1.1 2.3 2.6 2.5 4.4H370c-.2-1-.7-2-1.7-2.8-1-.8-2.3-1.2-3.9-1.2-1.5 0-2.8.4-3.8 1.2-1 .8-1.5 1.9-1.5 3.3 0 1.1.3 1.9.8 2.6.6.7 1.2 1.1 2.1 1.5.8.3 2 .7 3.4 1.1 1.6.5 3 .9 4 1.4 1 .4 1.9 1.1 2.6 2 .7.9 1 2.1 1 3.7 0 1.2-.3 2.3-.9 3.4-.6 1.1-1.6 1.9-2.8 2.6-1.2.6-2.7 1-4.4 1-1.7-.1-3.2-.4-4.4-1zM395.6 204.4h-16.3c.1 1.5.4 2.8 1.1 3.8.6 1.1 1.5 1.9 2.6 2.4s2.2.8 3.5.8c1.6 0 3-.4 4.1-1.2 1.1-.8 1.9-1.9 2.2-3.2h2.7c-.5 1.9-1.5 3.5-3.1 4.7-1.6 1.2-3.6 1.8-5.9 1.8-1.9 0-3.5-.4-5-1.2-1.5-.8-2.6-2-3.4-3.5-.8-1.5-1.2-3.3-1.2-5.4 0-2 .4-3.8 1.2-5.4.8-1.5 2-2.7 3.4-3.5 1.5-.8 3.1-1.2 5-1.2s3.5.4 4.9 1.2c1.4.8 2.5 1.9 3.2 3.3.8 1.4 1.1 2.9 1.1 4.6-.1.9-.1 1.6-.1 2zm-3.4-5.8c-.6-1-1.4-1.8-2.5-2.3-1.1-.5-2.2-.8-3.5-.8-1.9 0-3.5.6-4.8 1.8-1.3 1.2-2.1 2.9-2.2 5.1h13.9c0-1.5-.3-2.7-.9-3.8zM402.8 186.6v26.7h-2.5v-26.7h2.5zM426.3 204.4H410c.1 1.5.4 2.8 1.1 3.8.6 1.1 1.5 1.9 2.6 2.4s2.2.8 3.5.8c1.6 0 3-.4 4.1-1.2 1.1-.8 1.9-1.9 2.2-3.2h2.7c-.5 1.9-1.5 3.5-3.1 4.7-1.6 1.2-3.6 1.8-5.9 1.8-1.9 0-3.5-.4-5-1.2-1.5-.8-2.6-2-3.4-3.5-.8-1.5-1.2-3.3-1.2-5.4 0-2 .4-3.8 1.2-5.4.8-1.5 2-2.7 3.4-3.5 1.5-.8 3.1-1.2 5-1.2s3.5.4 4.9 1.2c1.4.8 2.5 1.9 3.2 3.3.8 1.4 1.1 2.9 1.1 4.6 0 .9-.1 1.6-.1 2zm-3.4-5.8c-.6-1-1.4-1.8-2.5-2.3-1.1-.5-2.2-.8-3.5-.8-1.9 0-3.5.6-4.8 1.8-1.3 1.2-2.1 2.9-2.2 5.1h13.9c0-1.5-.3-2.7-.9-3.8zM431 198.1c.8-1.5 1.9-2.7 3.4-3.5 1.4-.8 3.1-1.2 4.9-1.2 2.4 0 4.4.6 6 1.8 1.6 1.2 2.6 2.8 3 4.9h-2.7c-.3-1.4-1.1-2.5-2.2-3.3-1.1-.8-2.5-1.2-4.2-1.2-1.3 0-2.5.3-3.6.9-1.1.6-1.9 1.5-2.5 2.7-.6 1.2-.9 2.7-.9 4.4 0 1.7.3 3.2.9 4.4.6 1.2 1.4 2.1 2.5 2.7 1.1.6 2.2.9 3.6.9 1.7 0 3-.4 4.2-1.2 1.1-.8 1.8-1.9 2.2-3.4h2.7c-.5 2-1.5 3.6-3.1 4.9-1.6 1.2-3.6 1.8-6 1.8-1.9 0-3.5-.4-4.9-1.2-1.4-.8-2.6-2-3.4-3.5-.8-1.5-1.2-3.3-1.2-5.4.1-2.2.5-4 1.3-5.5zM456.4 195.7V208c0 1.2.2 2 .7 2.5.5.5 1.3.7 2.4.7h2.3v2.2h-2.7c-1.8 0-3.1-.4-4-1.2-.9-.8-1.3-2.2-1.3-4.1v-12.2h-2.7v-2.1h2.7v-4.9h2.6v4.9h5.4v2.1h-5.4zM465.9 189.4c-.4-.4-.5-.8-.5-1.3s.2-1 .5-1.3.8-.5 1.3-.5.9.2 1.3.5.5.8.5 1.3-.2 1-.5 1.3c-.4.4-.8.5-1.3.5s-.9-.2-1.3-.5zm2.6 4.2v19.7H466v-19.7h2.5zM477.8 212.4c-1.5-.8-2.6-2-3.5-3.5-.9-1.5-1.3-3.3-1.3-5.4 0-2 .4-3.8 1.3-5.4.9-1.5 2-2.7 3.5-3.5 1.5-.8 3.2-1.2 5-1.2 1.9 0 3.5.4 5 1.2 1.5.8 2.7 2 3.5 3.5.9 1.5 1.3 3.3 1.3 5.4 0 2-.4 3.8-1.3 5.3s-2.1 2.7-3.6 3.6c-1.5.8-3.2 1.2-5.1 1.2-1.6 0-3.3-.4-4.8-1.2zm8.6-1.9c1.1-.6 2-1.5 2.7-2.7.7-1.2 1-2.7 1-4.4 0-1.7-.3-3.2-1-4.4-.7-1.2-1.6-2.1-2.7-2.7-1.1-.6-2.3-.9-3.6-.9-1.3 0-2.5.3-3.6.9-1.1.6-2 1.5-2.7 2.7-.7 1.2-1 2.7-1 4.4 0 1.7.3 3.2 1 4.4.7 1.2 1.5 2.1 2.6 2.7 1.1.6 2.3.9 3.6.9 1.4 0 2.6-.3 3.7-.9zM512.4 195.4c1.5 1.5 2.2 3.6 2.2 6.3v11.5h-2.5v-11.3c0-2.1-.5-3.8-1.6-4.9-1.1-1.1-2.5-1.7-4.4-1.7-1.9 0-3.4.6-4.5 1.8-1.1 1.2-1.7 3-1.7 5.3v10.8h-2.5v-19.7h2.5v3.4c.6-1.2 1.5-2.1 2.7-2.8 1.2-.6 2.5-1 4-1 2.4.2 4.3.9 5.8 2.3z"/></g><g><path class="st3" d="M-596.1 558.7h-13.2v-19.4h13.2v19.4zm0 80.5-13.2 13v-76.5h13.2v63.5zm63.8 15.2v13.2h-66.2l13.4-13.2h52.8zM-469.2 655.9c-19.1 0-35.2-13-35.2-38.7v-13.7h-13.2v13.2c0 36.7 22 52.5 48.4 52.5 24.4 0 43.8-14.1 46.6-45.1l-12.8-5.7c-.6 24.5-15.1 37.5-33.8 37.5z"/><path class="st1" d="M-504.4 571.5h-13.2v19.2h13.2v-19.2z"/><path class="st2" d="M-504.4 539.2h-13.2v19.4h13.2v-19.4z"/><path class="st3" d="M-435.5 539.2v59.1l13.2 5.7v-64.7h-13.2zM-374 618.1l8.1 11.4-27.1 38.2h-16.3l35.3-49.6zm-1.3-34.7-31.5-44.2h16.1l23.5 32.6-8.1 11.6zm76.7 84.2H-315l-47.1-66 44.6-62.4h16.3l-44.8 62.4 47.4 66zM-250.4 618.8l-44.6-79.6h15.2l36 64.4 36.1-64.4h15.2l-44.8 79.6h-13.1zm0 23.1h13.4v25.7h-13.4v-25.7zM-95.8 539.2v13.2h-93v-13.2h93zm-53.2 34.5h13.4v93.9H-149v-93.9z"/><g><path class="st3" d="M-595.3 704.4c-1.4 1.3-3.5 2-6.4 2h-5.1v10.8h-2.5V692h7.6c2.8 0 4.9.7 6.4 2s2.1 3.1 2.1 5.3c0 2-.7 3.7-2.1 5.1zm-.5-5.3c0-1.7-.5-3-1.4-3.8-.9-.9-2.4-1.3-4.5-1.3h-5.1v10.2h5.1c3.9 0 5.9-1.7 5.9-5.1zM-583.9 698c1.1-.7 2.5-1 4.2-1v2.6h-.7c-1.8 0-3.3.5-4.4 1.5-1.1 1-1.7 2.6-1.7 4.9v11h-2.5v-19.7h2.5v3.5c.6-1.1 1.4-2.1 2.6-2.8zM-558.2 708.2h-16.3c.1 1.5.4 2.8 1.1 3.8s1.5 1.9 2.6 2.4 2.2.8 3.5.8c1.6 0 3-.4 4.1-1.2 1.1-.8 1.9-1.9 2.2-3.2h2.7c-.5 1.9-1.5 3.5-3.1 4.7-1.6 1.2-3.6 1.8-5.9 1.8-1.9 0-3.5-.4-5-1.2-1.5-.8-2.6-2-3.4-3.5-.8-1.5-1.2-3.3-1.2-5.4 0-2 .4-3.8 1.2-5.4.8-1.5 2-2.7 3.4-3.5 1.5-.8 3.1-1.2 5-1.2s3.5.4 4.9 1.2c1.4.8 2.5 1.9 3.2 3.3.8 1.4 1.1 2.9 1.1 4.6 0 .9 0 1.6-.1 2zm-3.3-5.8c-.6-1-1.4-1.8-2.5-2.3-1.1-.5-2.2-.8-3.5-.8-1.9 0-3.5.6-4.8 1.8-1.3 1.2-2.1 2.9-2.2 5.1h13.9c0-1.5-.3-2.8-.9-3.8zM-541.2 702.7v2.1h-14v-2.1h14zM-532.2 715h9.1v2.1h-11.6v-25.2h2.5V715zM-515.9 716.1c-1.5-.8-2.6-2-3.5-3.5s-1.3-3.3-1.3-5.4c0-2 .4-3.8 1.3-5.4.9-1.5 2-2.7 3.5-3.5 1.5-.8 3.2-1.2 5-1.2 1.9 0 3.5.4 5 1.2 1.5.8 2.7 2 3.5 3.5.9 1.5 1.3 3.3 1.3 5.4 0 2-.4 3.8-1.3 5.3s-2.1 2.7-3.6 3.6c-1.5.8-3.2 1.2-5.1 1.2-1.7.1-3.4-.3-4.8-1.2zm8.6-1.8c1.1-.6 2-1.5 2.7-2.7.7-1.2 1-2.7 1-4.4s-.3-3.2-1-4.4c-.7-1.2-1.6-2.1-2.7-2.7-1.1-.6-2.3-.9-3.6-.9-1.3 0-2.5.3-3.6.9-1.1.6-2 1.5-2.7 2.7-.7 1.2-1 2.7-1 4.4s.3 3.2 1 4.4c.7 1.2 1.5 2.1 2.6 2.7 1.1.6 2.3.9 3.6.9 1.4 0 2.6-.3 3.7-.9zM-489.4 714.6l6.6-17.2h2.7l-7.9 19.7h-2.8l-7.9-19.7h2.7l6.6 17.2zM-458.9 708.2h-16.3c.1 1.5.4 2.8 1.1 3.8s1.5 1.9 2.6 2.4 2.2.8 3.5.8c1.6 0 3-.4 4.1-1.2 1.1-.8 1.9-1.9 2.2-3.2h2.7c-.5 1.9-1.5 3.5-3.1 4.7-1.6 1.2-3.6 1.8-5.9 1.8-1.9 0-3.5-.4-5-1.2-1.5-.8-2.6-2-3.4-3.5-.8-1.5-1.2-3.3-1.2-5.4 0-2 .4-3.8 1.2-5.4.8-1.5 2-2.7 3.4-3.5 1.5-.8 3.1-1.2 5-1.2s3.5.4 4.9 1.2c1.4.8 2.5 1.9 3.2 3.3.8 1.4 1.1 2.9 1.1 4.6 0 .9-.1 1.6-.1 2zm-3.4-5.8c-.6-1-1.4-1.8-2.5-2.3-1.1-.5-2.2-.8-3.5-.8-1.9 0-3.5.6-4.8 1.8-1.3 1.2-2.1 2.9-2.2 5.1h13.9c0-1.5-.3-2.8-.9-3.8zM-454.2 701.9c.8-1.5 1.9-2.7 3.4-3.5 1.4-.8 3-1.2 4.9-1.2 1.7 0 3.3.4 4.7 1.3 1.4.8 2.4 1.9 3.1 3.3v-11.3h2.5v26.7h-2.5v-4.4c-.6 1.4-1.6 2.5-3 3.4-1.4.9-3 1.3-4.8 1.3-1.8 0-3.4-.4-4.9-1.3-1.4-.8-2.6-2-3.4-3.6-.8-1.5-1.2-3.3-1.2-5.3s.4-3.9 1.2-5.4zm15.1 1.2c-.6-1.2-1.5-2.1-2.7-2.8-1.1-.7-2.4-1-3.7-1-1.4 0-2.6.3-3.8.9-1.1.6-2 1.5-2.6 2.7-.6 1.2-1 2.6-1 4.2s.3 3 1 4.2c.6 1.2 1.5 2.1 2.6 2.8s2.4 1 3.8 1c1.3 0 2.6-.3 3.7-1s2-1.6 2.7-2.8c.6-1.2 1-2.6 1-4.2-.1-1.4-.4-2.8-1-4zM-406.6 717.1l-6.2-10.5h-4.7v10.5h-2.5v-25.2h7.6c2.8 0 4.9.7 6.4 2s2.2 3.1 2.2 5.3c0 1.8-.5 3.4-1.6 4.7-1 1.3-2.6 2.1-4.6 2.5l6.5 10.7h-3.1zm-10.9-12.6h5.1c2 0 3.5-.5 4.5-1.4 1-1 1.5-2.2 1.5-3.9 0-1.7-.5-2.9-1.4-3.8-1-.9-2.5-1.4-4.5-1.4h-5.1v10.5zM-381.1 708.2h-16.3c.1 1.5.4 2.8 1.1 3.8s1.5 1.9 2.6 2.4 2.2.8 3.5.8c1.6 0 3-.4 4.1-1.2 1.1-.8 1.9-1.9 2.2-3.2h2.7c-.5 1.9-1.5 3.5-3.1 4.7-1.6 1.2-3.6 1.8-5.9 1.8-1.9 0-3.5-.4-5-1.2-1.5-.8-2.6-2-3.4-3.5-.8-1.5-1.2-3.3-1.2-5.4 0-2 .4-3.8 1.2-5.4.8-1.5 2-2.7 3.4-3.5 1.5-.8 3.1-1.2 5-1.2s3.5.4 4.9 1.2c1.4.8 2.5 1.9 3.2 3.3.8 1.4 1.1 2.9 1.1 4.6 0 .9 0 1.6-.1 2zm-3.3-5.8c-.6-1-1.4-1.8-2.5-2.3-1.1-.5-2.2-.8-3.5-.8-1.9 0-3.5.6-4.8 1.8-1.3 1.2-2.1 2.9-2.2 5.1h13.9c0-1.5-.3-2.8-.9-3.8zM-375.1 715.8c-1.4-1-2.2-2.5-2.4-4.3h2.6c.1 1.1.6 2 1.6 2.7s2.2 1 3.7 1c1.4 0 2.4-.3 3.2-1 .8-.7 1.2-1.5 1.2-2.4 0-.7-.2-1.2-.7-1.7-.4-.4-1-.8-1.6-1-.7-.3-1.6-.5-2.7-.8-1.5-.4-2.7-.8-3.6-1.2-.9-.4-1.7-1-2.3-1.7-.6-.8-1-1.8-1-3 0-1 .3-1.9.9-2.7.6-.8 1.4-1.5 2.5-1.9 1.1-.5 2.3-.7 3.6-.7 2.1 0 3.8.5 5.1 1.6 1.3 1.1 2 2.5 2.1 4.4h-2.5c-.1-1.2-.5-2.1-1.4-2.8-.8-.7-2-1.1-3.4-1.1-1.3 0-2.3.3-3.1.9-.8.6-1.2 1.3-1.2 2.2 0 .8.2 1.4.7 1.9.5.5 1.1.9 1.7 1.2.7.3 1.6.6 2.8.9 1.4.4 2.5.8 3.4 1.1.8.4 1.6.9 2.2 1.6.6.7.9 1.6.9 2.8 0 1.1-.3 2-.9 2.8-.6.8-1.4 1.5-2.4 2s-2.2.7-3.6.7c-2.1.1-4-.4-5.4-1.5zM-357.9 701.9c.8-1.5 1.9-2.7 3.4-3.5 1.4-.8 3-1.2 4.9-1.2 1.9 0 3.5.4 4.9 1.3 1.4.9 2.3 2 2.9 3.3v-4.3h2.5v19.7h-2.5v-4.4c-.6 1.3-1.6 2.5-3 3.3-1.4.9-3 1.3-4.9 1.3-1.8 0-3.4-.4-4.8-1.3-1.4-.8-2.6-2-3.4-3.6-.8-1.5-1.2-3.3-1.2-5.3s.4-3.8 1.2-5.3zm15 1.2c-.6-1.2-1.5-2.1-2.7-2.8-1.1-.7-2.4-1-3.7-1-1.4 0-2.6.3-3.8.9-1.1.6-2 1.5-2.6 2.7-.6 1.2-1 2.6-1 4.2s.3 3 1 4.2c.6 1.2 1.5 2.1 2.6 2.8s2.4 1 3.8 1c1.3 0 2.6-.3 3.7-1s2-1.6 2.7-2.8c.6-1.2 1-2.6 1-4.2 0-1.4-.3-2.8-1-4zM-331.1 690.4v26.7h-2.5v-26.7h2.5zM-307.6 708.2h-16.3c.1 1.5.4 2.8 1.1 3.8s1.5 1.9 2.6 2.4 2.2.8 3.5.8c1.6 0 3-.4 4.1-1.2 1.1-.8 1.9-1.9 2.2-3.2h2.7c-.5 1.9-1.5 3.5-3.1 4.7-1.6 1.2-3.6 1.8-5.9 1.8-1.9 0-3.5-.4-5-1.2-1.5-.8-2.6-2-3.4-3.5-.8-1.5-1.2-3.3-1.2-5.4 0-2 .4-3.8 1.2-5.4.8-1.5 2-2.7 3.4-3.5 1.5-.8 3.1-1.2 5-1.2s3.5.4 4.9 1.2c1.4.8 2.5 1.9 3.2 3.3.8 1.4 1.1 2.9 1.1 4.6 0 .9 0 1.6-.1 2zm-3.4-5.8c-.6-1-1.4-1.8-2.5-2.3-1.1-.5-2.2-.8-3.5-.8-1.9 0-3.5.6-4.8 1.8-1.3 1.2-2.1 2.9-2.2 5.1h13.9c0-1.5-.3-2.8-.9-3.8zM-289.8 716.5c-1.3-.6-2.3-1.4-3-2.4-.7-1-1.1-2.2-1.2-3.5h2.7c.1 1.2.7 2.3 1.6 3.2 1 .9 2.4 1.4 4.2 1.4 1.7 0 3.1-.4 4.1-1.3 1-.9 1.5-2 1.5-3.3 0-1.1-.3-2-.8-2.6-.6-.7-1.2-1.2-2.1-1.5-.8-.3-1.9-.7-3.4-1.1-1.7-.5-3-.9-4-1.3s-1.8-1.1-2.5-2c-.7-.9-1-2.2-1-3.7 0-1.3.3-2.5 1-3.5s1.6-1.8 2.9-2.4c1.2-.6 2.6-.9 4.2-.9 2.3 0 4.2.6 5.6 1.7 1.4 1.1 2.3 2.6 2.5 4.4h-2.7c-.2-1-.7-2-1.7-2.8-1-.8-2.3-1.2-3.9-1.2-1.5 0-2.8.4-3.8 1.2-1 .8-1.5 1.9-1.5 3.3 0 1.1.3 1.9.8 2.6.6.7 1.2 1.1 2.1 1.5.8.3 2 .7 3.4 1.1 1.6.5 3 .9 4 1.4 1 .4 1.9 1.1 2.6 2 .7.9 1 2.1 1 3.7 0 1.2-.3 2.3-.9 3.4-.6 1.1-1.6 1.9-2.8 2.6-1.2.6-2.7 1-4.4 1-1.7-.2-3.2-.4-4.5-1zM-254.6 708.2H-271c.1 1.5.4 2.8 1.1 3.8s1.5 1.9 2.6 2.4 2.2.8 3.5.8c1.6 0 3-.4 4.1-1.2 1.1-.8 1.9-1.9 2.2-3.2h2.7c-.5 1.9-1.5 3.5-3.1 4.7-1.6 1.2-3.6 1.8-5.9 1.8-1.9 0-3.5-.4-5-1.2-1.5-.8-2.6-2-3.4-3.5-.8-1.5-1.2-3.3-1.2-5.4 0-2 .4-3.8 1.2-5.4.8-1.5 2-2.7 3.4-3.5s3.1-1.2 5-1.2 3.5.4 4.9 1.2c1.4.8 2.5 1.9 3.2 3.3.8 1.4 1.1 2.9 1.1 4.6v2zm-3.4-5.8c-.6-1-1.4-1.8-2.5-2.3-1.1-.5-2.2-.8-3.5-.8-1.9 0-3.5.6-4.8 1.8-1.3 1.2-2.1 2.9-2.2 5.1h13.9c0-1.5-.3-2.8-.9-3.8zM-247.4 690.4v26.7h-2.5v-26.7h2.5zM-223.9 708.2h-16.3c.1 1.5.4 2.8 1.1 3.8s1.5 1.9 2.6 2.4 2.2.8 3.5.8c1.6 0 3-.4 4.1-1.2 1.1-.8 1.9-1.9 2.2-3.2h2.7c-.5 1.9-1.5 3.5-3.1 4.7-1.6 1.2-3.6 1.8-5.9 1.8-1.9 0-3.5-.4-5-1.2-1.5-.8-2.6-2-3.4-3.5-.8-1.5-1.2-3.3-1.2-5.4 0-2 .4-3.8 1.2-5.4.8-1.5 2-2.7 3.4-3.5s3.1-1.2 5-1.2 3.5.4 4.9 1.2c1.4.8 2.5 1.9 3.2 3.3.8 1.4 1.1 2.9 1.1 4.6-.1.9-.1 1.6-.1 2zm-3.4-5.8c-.6-1-1.4-1.8-2.5-2.3-1.1-.5-2.2-.8-3.5-.8-1.9 0-3.5.6-4.8 1.8-1.3 1.2-2.1 2.9-2.2 5.1h13.9c0-1.5-.3-2.8-.9-3.8zM-219.2 701.9c.8-1.5 1.9-2.7 3.4-3.5 1.4-.8 3.1-1.2 4.9-1.2 2.4 0 4.4.6 6 1.8 1.6 1.2 2.6 2.8 3 4.9h-2.7c-.3-1.4-1.1-2.5-2.2-3.3-1.1-.8-2.5-1.2-4.2-1.2-1.3 0-2.5.3-3.6.9-1.1.6-1.9 1.5-2.5 2.7-.6 1.2-.9 2.7-.9 4.4s.3 3.2.9 4.4c.6 1.2 1.4 2.1 2.5 2.7 1.1.6 2.2.9 3.6.9 1.7 0 3-.4 4.2-1.2 1.1-.8 1.8-1.9 2.2-3.4h2.7c-.5 2-1.5 3.6-3.1 4.9-1.6 1.2-3.6 1.8-6 1.8-1.9 0-3.5-.4-4.9-1.2-1.4-.8-2.6-2-3.4-3.5s-1.2-3.3-1.2-5.4c.1-2.2.5-4 1.3-5.5zM-193.8 699.5v12.2c0 1.2.2 2 .7 2.5.5.5 1.3.7 2.4.7h2.3v2.2h-2.7c-1.8 0-3.1-.4-4-1.2-.9-.8-1.3-2.2-1.3-4.1v-12.2h-2.7v-2.1h2.7v-4.9h2.6v4.9h5.4v2.1h-5.4zM-184.3 693.1c-.4-.4-.5-.8-.5-1.3s.2-1 .5-1.3c.4-.3.8-.5 1.3-.5s.9.2 1.3.5.5.8.5 1.3-.2 1-.5 1.3c-.4.4-.8.5-1.3.5-.5.1-.9-.1-1.3-.5zm2.6 4.3v19.7h-2.5v-19.7h2.5zM-172.4 716.1c-1.5-.8-2.6-2-3.5-3.5-.9-1.5-1.3-3.3-1.3-5.4 0-2 .4-3.8 1.3-5.4.9-1.5 2-2.7 3.5-3.5 1.5-.8 3.2-1.2 5-1.2 1.9 0 3.5.4 5 1.2 1.5.8 2.7 2 3.5 3.5.9 1.5 1.3 3.3 1.3 5.4 0 2-.4 3.8-1.3 5.3s-2.1 2.7-3.6 3.6c-1.5.8-3.2 1.2-5.1 1.2-1.6.1-3.3-.3-4.8-1.2zm8.6-1.8c1.1-.6 2-1.5 2.7-2.7.7-1.2 1-2.7 1-4.4s-.3-3.2-1-4.4c-.7-1.2-1.6-2.1-2.7-2.7-1.1-.6-2.3-.9-3.6-.9-1.3 0-2.5.3-3.6.9-1.1.6-2 1.5-2.7 2.7-.7 1.2-1 2.7-1 4.4s.3 3.2 1 4.4c.7 1.2 1.5 2.1 2.6 2.7 1.1.6 2.3.9 3.6.9 1.4 0 2.6-.3 3.7-.9zM-137.8 699.2c1.5 1.5 2.2 3.6 2.2 6.3V717h-2.5v-11.3c0-2.1-.5-3.8-1.6-4.9-1.1-1.1-2.5-1.7-4.4-1.7-1.9 0-3.4.6-4.5 1.8-1.1 1.2-1.7 3-1.7 5.3V717h-2.5v-19.7h2.5v3.4c.6-1.2 1.5-2.1 2.7-2.8 1.2-.6 2.5-1 4-1 2.3.1 4.3.9 5.8 2.3z"/></g></g><text transform="translate(-1320.433 320.046)" class="st0" style="font-family:'Poppins-Light';font-size:35.66px">Pre-Loved Resale Selection</text><g><path d="M-618.3 820.1h-13.2v-19.4h13.2v19.4zm0 80.5-13.2 13v-76.5h13.2v63.5zm63.8 15.2V929h-66.2l13.4-13.2h52.8zM-491.4 917.3c-19.1 0-35.2-13-35.2-38.7v-13.7h-13.2v13.2c0 36.7 22 52.5 48.4 52.5 24.4 0 43.8-14.1 46.6-45.1l-12.8-5.7c-.6 24.4-15.1 37.5-33.8 37.5z"/><path class="st1" d="M-526.6 832.9h-13.2v19.2h13.2v-19.2z"/><path class="st2" d="M-526.6 800.6h-13.2V820h13.2v-19.4z"/><path d="M-457.7 800.6v59.1l13.2 5.7v-64.7h-13.2zM-396.2 879.5l8.1 11.4-27.1 38.2h-16.3l35.3-49.6zm-1.3-34.7-31.5-44.2h16.1l23.5 32.6-8.1 11.6zm76.7 84.2h-16.3l-47.1-66 44.6-62.4h16.3l-44.8 62.4 47.3 66zM-272.6 880.2l-44.6-79.6h15.2l36 64.4 36.1-64.4h15.2l-44.8 79.6h-13.1zm0 23.1h13.4V929h-13.4v-25.7zM-118 800.6v13.2h-93v-13.2h93zm-53.2 34.5h13.4V929h-13.4v-93.9z"/></g><g><path class="st0" d="M-20.3 820.1h-13.2v-19.4h13.2v19.4zm0 80.5-13.2 13v-76.5h13.2v63.5zm63.8 15.2V929h-66.2l13.4-13.2h52.8zM106.6 917.3c-19.1 0-35.2-13-35.2-38.7v-13.7H58.2v13.2c0 36.7 22 52.5 48.4 52.5 24.4 0 43.8-14.1 46.6-45.1l-12.8-5.7c-.6 24.4-15.1 37.5-33.8 37.5z"/><path class="st1" d="M71.4 832.9H58.2v19.2h13.2v-19.2z"/><path class="st2" d="M71.4 800.6H58.2V820h13.2v-19.4z"/><path class="st0" d="M140.4 800.6v59.1l13.2 5.7v-64.7h-13.2zM201.8 879.5l8.1 11.4-27.2 38.1h-16.3l35.4-49.5zm-1.3-34.7L169 800.6h16.1l23.5 32.6-8.1 11.6zm76.7 84.2h-16.3l-47.1-66 44.6-62.4h16.3L229.9 863l47.3 66zM325.4 880.2l-44.6-79.6H296l36 64.4 36.1-64.4h15.2l-44.8 79.6h-13.1zm0 23.1h13.4V929h-13.4v-25.7zM480 800.6v13.2h-93v-13.2h93zm-53.2 34.5h13.4V929h-13.4v-93.9z"/></g><g><path class="st0" d="M-597.4 65.1h-13.2V45.7h13.2v19.4zm0 80.5-13.2 13V82.2h13.2v63.4zm63.9 15.2V174h-66.2l13.4-13.2h52.8zM-470.5 162.3c-19.1 0-35.2-13-35.2-38.7v-13.7h-13.2v13.2c0 36.7 22 52.5 48.4 52.5 24.4 0 43.8-14.1 46.6-45.1l-12.8-5.7c-.6 24.5-15 37.5-33.8 37.5z"/><path class="st1" d="M-505.7 77.9h-13.2v19.2h13.2V77.9z"/><path class="st2" d="M-505.7 45.7h-13.2v19.4h13.2V45.7z"/><path class="st0" d="M-436.7 45.7v59.1l13.2 5.7V45.8h-13.2zM-375.3 124.5l8.1 11.4-27.1 38.2h-16.3l35.3-49.6zm-1.3-34.6-31.5-44.2h16.1l23.5 32.6-8.1 11.6zm76.7 84.1h-16.3l-47.1-66 44.6-62.4h16.3l-44.8 62.4 47.3 66zM-251.7 125.3l-44.6-79.6h15.2l36 64.4 36.1-64.4h15.2l-44.8 79.6h-13.1zm0 23.1h13.4V174h-13.4v-25.6zM-97 45.7v13.2h-93V45.7h93zm-53.2 34.4h13.4V174h-13.4V80.1z"/></g></g></switch></svg>